<svg xmlns="http://www.w3.org/2000/svg" width="116" height="20" viewBox="0 0 116 20">
    <g fill="#B9FEEB" fill-rule="evenodd" stroke="#50FCCE" stroke-width="1.3">
        <path d="M11.452 1.94l1.527 3.223c.237.497.692.842 1.219.922l3.414.517c1.328.2 1.859 1.902.897 2.878l-2.47 2.51c-.381.387-.556.944-.466 1.492l.583 3.542c.227 1.378-1.16 2.43-2.35 1.778l-3.053-1.672a1.562 1.562 0 0 0-1.506 0l-3.054 1.672c-1.188.652-2.576-.4-2.349-1.778l.583-3.542a1.734 1.734 0 0 0-.465-1.492l-2.47-2.51c-.963-.976-.432-2.677.896-2.878l3.414-.517c.527-.08.984-.425 1.22-.922L8.547 1.94a1.592 1.592 0 0 1 2.904 0zM35.452 1.94l1.527 3.223c.237.497.692.842 1.219.922l3.414.517c1.328.2 1.859 1.902.897 2.878l-2.47 2.51c-.381.387-.556.944-.466 1.492l.583 3.542c.227 1.378-1.16 2.43-2.35 1.778l-3.053-1.672a1.562 1.562 0 0 0-1.506 0l-3.054 1.672c-1.188.652-2.576-.4-2.349-1.778l.583-3.542a1.734 1.734 0 0 0-.465-1.492l-2.47-2.51c-.963-.976-.432-2.677.896-2.878l3.414-.517c.527-.08.984-.425 1.22-.922l1.526-3.223a1.592 1.592 0 0 1 2.904 0zM59.452 1.94l1.527 3.223c.237.497.692.842 1.219.922l3.414.517c1.328.2 1.859 1.902.897 2.878l-2.47 2.51c-.381.387-.556.944-.466 1.492l.583 3.542c.227 1.378-1.16 2.43-2.35 1.778l-3.053-1.672a1.562 1.562 0 0 0-1.506 0l-3.054 1.672c-1.188.652-2.576-.4-2.349-1.778l.583-3.542a1.734 1.734 0 0 0-.465-1.492l-2.47-2.51c-.963-.976-.432-2.677.896-2.878l3.414-.517c.527-.08.984-.425 1.22-.922l1.526-3.223a1.592 1.592 0 0 1 2.904 0zM83.452 1.94l1.527 3.223c.237.497.692.842 1.219.922l3.414.517c1.328.2 1.859 1.902.897 2.878l-2.47 2.51c-.381.387-.556.944-.466 1.492l.583 3.542c.227 1.378-1.16 2.43-2.35 1.778l-3.053-1.672a1.562 1.562 0 0 0-1.506 0l-3.054 1.672c-1.188.652-2.576-.4-2.349-1.778l.583-3.542a1.734 1.734 0 0 0-.465-1.492l-2.47-2.51c-.963-.976-.432-2.677.896-2.878l3.414-.517c.527-.08.984-.425 1.22-.922l1.526-3.223a1.592 1.592 0 0 1 2.904 0zM107.452 1.94l1.527 3.223c.237.497.692.842 1.219.922l3.414.517c1.328.2 1.859 1.902.897 2.878l-2.47 2.51c-.381.387-.556.944-.466 1.492l.583 3.542c.227 1.378-1.16 2.43-2.35 1.778l-3.053-1.672a1.562 1.562 0 0 0-1.506 0l-3.054 1.672c-1.188.652-2.576-.4-2.349-1.778l.583-3.542a1.734 1.734 0 0 0-.465-1.492l-2.47-2.51c-.963-.976-.432-2.677.896-2.878l3.414-.517c.527-.08.984-.425 1.22-.922l1.526-3.223a1.592 1.592 0 0 1 2.904 0z"/>
    </g>
</svg>
