<svg xmlns="http://www.w3.org/2000/svg" width="57" height="20" viewBox="0 0 57 20">
    <path fill="#606060" fill-rule="nonzero" d="M26.86.038s-.618.015-.976.008c-.015.17-.188 1.717-.336 2.96-.17 1.151-1.523 9.687-1.981 12.242-.12.772-.493 2.951-.529 3.17-.43.058-.938.112-1.27.126-.045.002-.119.018-.154.018v.443c.04-.002.256.017.408.01.365-.014 1.402-.07 1.599-.07.745 0 1.243.056 1.933.072.009 0 .198-.001.282-.013v-.447l-.178-.002c-.195.007-.913-.056-1.277-.112.043-.293.677-4.713.982-6.481.578-3.272.979-5.592.979-5.592l.108.288 4.572 12.376.835.004s.477-1.34 1.042-2.843c.015-.035.056-.143.113-.297.594-1.56 3.536-9.482 3.536-9.482s.028.143.074.398c.28 1.552 1.228 7.148 1.43 8.498.095.694.184 1.399.236 1.811.076.584.126 1.156.126 1.32-.093.005-1.024.101-1.376.118a1.683 1.683 0 0 0-.15.005v.45c.126 0 .248.006.37.003.72-.016 1.412-.08 2.132-.08.809.002 2.12.082 2.96.088.095 0 .264-.01.264-.01v-.454c-.049 0-.26-.012-.338-.02-.376-.033-1.01-.1-1.172-.112 0 0-.104-.653-.241-1.408-.55-3.02-2.113-12.2-2.352-14.458a136.87 136.87 0 0 0-.314-2.52h-.94l-.919 2.993c-.298.975-.704 2.179-1.014 3.102-1.529 4.562-3.243 8.812-3.243 8.812s-3.643-9.87-3.836-10.441C28.05 3.94 26.86.039 26.86.039zM.62.038L.63 1.085.614 3.631l.24-.008.026-2.265s1.32-.013 1.492-.013l2.463.001 1.59.01.003 15.75v1.36l-.034.006c-.211.019-1.026.076-1.356.09-.075.002-.122.004-.13.003l.001.461c.06.003.221.008.242.007.783-.012 1.842-.09 2.592-.089.763 0 1.837.086 2.5.094.067 0 .145-.007.208-.007V18.6l-.082.001a32.296 32.296 0 0 1-1.504-.105 542.58 542.58 0 0 1-.027-1.254l.006-15.887 1.21-.004 3.159.003 1.054.016c.007.086.06 1.234.06 1.265-.003.083.039.938.037 1.148l.25.003-.018-2.575.011-1.159c-.928.03-3.293.066-6.964.063C4.495.112 1.461.082.621.038zm14.994 0l.004.451c.135.008.934.082 1.128.092.154.02.37.04.525.056 0 .144.002 1.14.005 1.533.026 3.726.003 11.96-.007 14.873l-.005 1.385c-.098.03-.318.042-.556.059-.204.015-.933.079-1.095.082v.451c.067 0 .19.015.261.015.826 0 1.973-.108 2.818-.107.854 0 1.995.11 2.668.11h-.002c.058.001.196-.015.255-.015v-.45h-.059c-.026-.006-.893-.044-1.104-.067-.11-.008-.588-.051-.594-.068a8.37 8.37 0 0 1-.004-.368c.002-.214.002-.568.002-.953l.012-15.001.002-1.45c.186-.012.95-.096 1.223-.122l.522-.032v-.47c-.934 0-2.17.076-3.081.076-.953 0-2.127-.08-2.918-.08zm40.804 0l-.27.001-3.924.026c-1.101.007-1.962.017-3.096.016-.796.01-1.909.044-2.596.043-1.098-.002-1.993-.076-2.48-.079-.231 0-.36.009-.424.005.004.006.004.444.004.444.042.008.127.018.206.016.275.02.791.066 1.053.104.052.01.14.026.387.056-.002.1.012 1.227.01 1.905l-.006 14.63c0 .023-.029 1.126-.029 1.215-.435.081-1.27.132-1.556.133h-.084v.445c.04 0 .227.008.333.008.46 0 1.646-.08 2.858-.081.849 0 1.783.034 2.728.049 1.165.017 2.344.018 3.403.035 1.746.027 3.162.029 3.622.03 0 0 .056-3.543.056-3.829l-.253.003c0 .302-.102 1.424-.105 1.473-.033.422-.068.865-.095 1.083 0 0-.123.01-.183.01-.287-.006-1.203.03-1.223.03l-4.088.002-2.87-.053-.02-.87-.002-6.763c.512-.02 1.294-.049 1.77-.048.404.001 1.357-.024 1.89-.023 1.297.003 2.448.012 2.54.015.214.007.611.021.761.031.006.06.023.153.025.18.077.517.12.876.172 1.384.007.046.011.09.017.132h.295s.007-.182.003-.295c-.005-.399-.028-1.194-.028-2.075-.002-.611.03-1.545.034-1.995.002-.121-.011-.207-.011-.242l-.27.006c-.002.097-.023.24-.023.24-.023.335-.11.763-.18 1.214-.018.056-.032.135-.032.135-.03.011-.876.06-.951.06l-1.28.037-4.73-.019.008-7.457s.6-.023.768-.022c.682 0 1.79-.007 2.921-.005 1.654.002 3.26.013 3.264.016.01.005.499.012.509.022.011.01.623.03.774.035 0 0 .011.055.019.125.067.787.123 1.72.148 2.051l.002.133.252-.001c0-.484-.023-1.967-.027-2.91-.002-.303.004-.55.004-.69v-.12z"/>
</svg>
